/* XPM */
static char *logo_50_xpm[] = {
/* columns rows colors chars-per-pixel */
"50 50 53 1 ",
"  c None",
". c #0C7798",
"X c #0D7B9D",
"o c #0D7EA1",
"O c #0D81A5",
"+ c #0D86AA",
"@ c #0E89AE",
"# c #1283A6",
"$ c #1186A9",
"% c #1489AD",
"& c #0E8DB3",
"* c #0E8FB8",
"= c #148EB3",
"- c #198EB1",
"; c #0E90B7",
": c #0F92BA",
"> c #1C93B7",
", c #1693B9",
"< c #1C95BA",
"1 c #1C98BE",
"2 c #2095B9",
"3 c #269BBF",
"4 c #0F97C0",
"5 c #0F99C4",
"6 c #0F9FCC",
"7 c #109CC7",
"8 c #109ECA",
"9 c #239DC3",
"0 c #0FA1CD",
"q c #12A1CC",
"w c #1BA4CE",
"e c #2DA2C5",
"r c #21A5CE",
"t c #2FA6CB",
"y c #2DA9CF",
"u c #30A3C6",
"i c #37A8CA",
"p c #38AACD",
"a c #22A7D0",
"s c #25A9D1",
"d c #2BABD2",
"f c #33AED3",
"g c #3DAED0",
"h c #37B0D4",
"j c #3BB1D5",
"k c #43B4D6",
"l c #4DB6D6",
"z c #47B6D8",
"x c #49B7D8",
"c c #4EB9D9",
"v c #54BBDA",
"b c #5BBEDC",
"n c #60C0DD",
/* pixels */
"                                                  ",
"                        qq                        ",
"                        qw                        ",
"                       0wwq                       ",
"                       0awq                       ",
"                      00dswq                      ",
"                      qqfsww                      ",
"                     8qwhdawq                     ",
"                     08shfsrq                     ",
"                    000djfdswq                    ",
"                    0qqhkhfsrq                    ",
"                   0080zzjfdawq                   ",
"                   080qvcjhfsrq                   ",
"                  800qrvczjhdawq                  ",
"                  0080dbvckhdsrq                  ",
"                 80q85rbvczjhdawq                 ",
"                 085:;&1vvxkhfswq                 ",
"                 ,**;;&&,xczhfdsw0                ",
"                  *;&&&&@=kxkhddr0                ",
"                    &&&&&@$izhfdawq               ",
"                     &&@@@@+ukffsrq               ",
"                       =@@+++3hfdaq               ",
"                         ++OOO2fddrq              ",
"              q            +OO#-ddaw              ",
"             qwwq            Ooo%yswq             ",
"             qwwaqq6          OoX#rsw             ",
"            qwwwsdr0q0          o..rwq            ",
"            wwrrsdfdq80q8         X.1w            ",
"           qqwasddffgw0060q         .,q           ",
"           qwwasddfhjjsqqq6qq        X=           ",
"          qwwassdfhjjzxhqqq66qq0                  ",
"          qqwasdffhjkzxcxw06q06q0q                ",
"         q0wrasddhjjzzccvvf080qq68q0q             ",
"         qwwraddfhjjzxcvbbnk77586776887           ",
"        qqwwasdffjjkzxcvbbk4::;;;;&;:&            ",
"        qwrraddfjjjkzcvvl9==&;;;;:&:              ",
"       qqqaasddhjjkzxcve&&&&*:*;;         q       ",
"       qwwaaddffhkkxxi-&&&&*&&:         qqw       ",
"      0qwwaaddhfjkkg>@@@$&@&*          8qdwq      ",
"      qqwwasdfhhjg3++@@@@&           qq0dfsw      ",
"     qqqwwsddfhje%++++@@           q0q6skfdaq     ",
"     qqwaadddft-OOO++            6q0q8wvxjdsw     ",
"    qqqrwadfy>oOOO+             q66555pbckfdrq    ",
"    qqqrwdd4oooO               :;;;;:&&9lxhfaw    ",
"   qqqrra9#XXO                    ;;:&&@=izfdr0   ",
"   qqwww%XXO                         &&&@+2fdsw   ",
"  q0qw=.X                              &OOO$9dr0  ",
"  qq,XX                                   Ooo-aq  ",
" q5+                                         Xo1q ",
" :                                              = "
};
